<svg xmlns="http://www.w3.org/2000/svg" version="1.1" xmlns:xlink="http://www.w3.org/1999/xlink" width="1000" height="1000"><g clip-path="url(#SvgjsClipPath1117)"><rect width="1000" height="1000" fill="#2477ff"></rect><g transform="matrix(1.2157421237278128,0,0,1.2157421237278128,238.85859182326578,150)"><svg xmlns="http://www.w3.org/2000/svg" version="1.1" xmlns:xlink="http://www.w3.org/1999/xlink" width="429.6" height="575.78"><svg id="Layer_1" data-name="Layer 1" xmlns="http://www.w3.org/2000/svg" viewBox="0 0 429.6 575.78"><path d="M319.12,446.61c4.62,4.91,9.38,9.5,13.61,14.52,13.35,15.86,22.62,34.11,30.35,53.19,9.54,23.54,15.49,48.07,20,73a669.11,669.11,0,0,1,10.21,96.38c.59,17.78,1.08,35.57,1.11,53.36,0,14-.73,28-1.18,42a9.27,9.27,0,0,1-9.35,8.87A8.87,8.87,0,0,1,375,778.6c.32-11.71,1-23.42,1.24-35.13a780.74,780.74,0,0,0-4-96.22,577.32,577.32,0,0,0-15.84-89C350.1,534.07,342,510.49,329,488.91c-9.59-16-21.38-29.78-38.56-38.11a15.13,15.13,0,0,1-1.41-.81c-2.82-1.79-4.23-4.28-3.77-7.67.44-3.23,2.7-5.49,6-6.53,13.53-4.27,27.37-7.79,40.48-13.1,40.68-16.48,77.45-39,106.81-72.3a221.85,221.85,0,0,0,39.4-64c9-22.18,14.21-45.27,17.18-68.94.43-3.48,2.24-5.37,4.91-5.35s4.48,1.79,4.94,5.38c2.66,21.16,7.1,41.9,14.51,62a224.28,224.28,0,0,0,54.67,84.15c29.58,28.78,65,47.92,103.05,62.5,10.1,3.87,20.65,6.57,31,9.71,3.88,1.18,6.08,3.33,6.47,6.79s-1,6.33-4.69,8.12a73.16,73.16,0,0,0-19.73,13.56c-9.93,9.78-17.65,21.13-24.1,33.37a235.17,235.17,0,0,0-19.61,50.88c-4.13,15.94-8.56,31.88-11.35,48.08-3.57,20.71-6.14,41.64-8.18,62.57-1.67,17-2.47,34.2-2.68,51.33-.27,21.57.44,43.15.74,64.72,0,1,.12,2,.13,2.93,0,5.49-3.64,9.49-8.86,9.66a9.05,9.05,0,0,1-9.57-9.3c-.33-23.33-.82-46.66-.82-70a666.64,666.64,0,0,1,7.43-97.28c3.1-21,7.24-41.91,12.37-62.5,7.23-29,18.39-56.56,36.25-80.85,5.1-6.94,11.6-12.85,17.46-19.23.5-.55,1-1.09,1.65-1.78-6.73-2.3-13.29-4.42-19.76-6.77a283.62,283.62,0,0,1-74.1-40.1,246.33,246.33,0,0,1-40.42-38.1A221.55,221.55,0,0,1,501,273.09c-.14-.52-.25-1-.42-1.57a4.44,4.44,0,0,0-.59-.83c-1.43,4.82-2.78,9.42-4.16,14-9.3,31.12-25.66,58.22-47,82.43-17.61,19.94-38.29,36.18-61,49.8a293.39,293.39,0,0,1-53.95,24.9c-4.09,1.43-8.26,2.62-12.39,3.94C320.49,446.05,319.64,446.41,319.12,446.61Z" transform="translate(-285.2 -212.11)" fill="#fff"></path><path d="M500,530.49c-.51-1.3-1-2.31-1.31-3.38-3.25-11.5-7.08-22.74-13.63-32.91-8.34-12.94-20.74-20-34.9-24.52-5.12-1.65-10.3-3.07-15.71-5.32,1.25-.59,2.48-1.22,3.75-1.76,9.95-4.23,20.29-7.74,29.76-12.85,11.89-6.42,19.22-17.3,24.08-29.73,2.6-6.65,4.67-13.5,7-20.26a19.88,19.88,0,0,1,1.09-2c.59,1.31,1,2.08,1.29,2.88,3.84,9.66,7.29,19.5,11.58,28.95A42.74,42.74,0,0,0,534,451c9.11,4.29,18.51,7.94,27.76,11.91a6.67,6.67,0,0,1,3.06,2.61c-1,.29-2,.57-2.9.89-7.9,2.67-16,5-23.65,8.12-13.71,5.62-23.28,15.72-28.81,29.4C506.06,512.38,503.29,521.15,500,530.49Z" transform="translate(-285.2 -212.11)" fill="#fff"></path><path d="M499.88,773.13q-35.61,0-71.24,0a15.23,15.23,0,0,1-5.39-.8,9.64,9.64,0,0,1-5.82-10.56,9.79,9.79,0,0,1,8.68-8,37,37,0,0,1,4.22-.12q70.26,0,140.53.08a16.29,16.29,0,0,1,7.67,1.91c3.6,2,4.81,6.43,3.69,10.58a9.34,9.34,0,0,1-8.49,6.93c-1.08.1-2.17.06-3.26.06H499.88Z" transform="translate(-285.2 -212.11)" fill="#fff"></path><path d="M545.71,721c5.21,0,9,3.31,9.51,8s-1.94,8.27-6.27,9.32a20.59,20.59,0,0,1-4.52.32c-11.7.09-23.41.06-35.11.24-19.71.3-39.42.77-59.13,1.08-4.37.07-7.21-2.14-8.27-5.94A8.58,8.58,0,0,1,445.86,724C447.58,723.05,529.89,721,545.71,721Z" transform="translate(-285.2 -212.11)" fill="#fff"></path><path d="M537.5,690.74c5.56,0,9.36,3.59,9.36,8.91,0,4.87-3.74,8.27-9.22,8.37l-71.87,1.3c-1.41,0-2.83.08-4.23,0-5-.24-8.35-3.65-8.37-8.53a8.4,8.4,0,0,1,8.53-8.74C474.5,692,525,690.76,537.5,690.74Z" transform="translate(-285.2 -212.11)" fill="#fff"></path></svg></svg></g></g><defs><clipPath id="SvgjsClipPath1117"><rect width="1000" height="1000" x="0" y="0" rx="350" ry="350"></rect></clipPath></defs></svg>